<?xml version="1.0" encoding="UTF-8" standalone="no"?>
<svg
   viewBox="0 0 496 512"
   version="1.1"
   id="svg4"
   sodipodi:docname="github.svg"
   inkscape:version="1.1.2 (0a00cf5339, 2022-02-04)"
   xmlns:inkscape="http://www.inkscape.org/namespaces/inkscape"
   xmlns:sodipodi="http://sodipodi.sourceforge.net/DTD/sodipodi-0.dtd"
   xmlns="http://www.w3.org/2000/svg"
   xmlns:svg="http://www.w3.org/2000/svg">
  <defs
     id="defs8" />
  <sodipodi:namedview
     id="namedview6"
     pagecolor="#ffffff"
     bordercolor="#666666"
     borderopacity="1.0"
     inkscape:pageshadow="2"
     inkscape:pageopacity="0.0"
     inkscape:pagecheckerboard="0"
     showgrid="false"
     inkscape:zoom="1.0488281"
     inkscape:cx="248.37244"
     inkscape:cy="297.95158"
     inkscape:window-width="1366"
     inkscape:window-height="713"
     inkscape:window-x="0"
     inkscape:window-y="27"
     inkscape:window-maximized="1"
     inkscape:current-layer="svg4" />
  <!--! Font Awesome Free 6.1.2 by @fontawesome - https://fontawesome.com License - https://fontawesome.com/license/free (Icons: CC BY 4.0, Fonts: SIL OFL 1.1, Code: MIT License) Copyright 2022 Fonticons, Inc. -->
  <path
     d="M165.9 397.4c0 2-2.3 3.6-5.2 3.6-3.3.3-5.6-1.3-5.6-3.6 0-2 2.3-3.6 5.2-3.6 3-.3 5.6 1.3 5.6 3.6zm-31.1-4.5c-.7 2 1.3 4.3 4.3 4.9 2.6 1 5.6 0 6.2-2s-1.3-4.3-4.3-5.2c-2.6-.7-5.5.3-6.2 2.3zm44.2-1.7c-2.9.7-4.9 2.6-4.6 4.9.3 2 2.9 3.3 5.9 2.6 2.9-.7 4.9-2.6 4.6-4.6-.3-1.9-3-3.2-5.9-2.9zM244.8 8C106.1 8 0 113.3 0 252c0 110.9 69.8 205.8 169.5 239.2 12.8 2.3 17.3-5.6 17.3-12.1 0-6.2-.3-40.4-.3-61.4 0 0-70 15-84.7-29.8 0 0-11.4-29.1-27.8-36.6 0 0-22.9-15.7 1.6-15.4 0 0 24.9 2 38.6 25.8 21.9 38.6 58.6 27.5 72.9 20.9 2.3-16 8.8-27.1 16-33.7-55.9-6.2-112.3-14.3-112.3-110.5 0-27.5 7.6-41.3 23.6-58.9-2.6-6.5-11.1-33.3 2.6-67.9 20.9-6.5 69 27 69 27 20-5.6 41.5-8.5 62.8-8.5s42.8 2.9 62.8 8.5c0 0 48.1-33.6 69-27 13.7 34.7 5.2 61.4 2.6 67.9 16 17.7 25.8 31.5 25.8 58.9 0 96.5-58.9 104.2-114.8 110.5 9.2 7.9 17 22.9 17 46.4 0 33.7-.3 75.4-.3 83.6 0 6.5 4.6 14.4 17.3 12.1C428.2 457.8 496 362.9 496 252 496 113.3 383.5 8 244.8 8zM97.2 352.9c-1.3 1-1 3.3.7 5.2 1.6 1.6 3.9 2.3 5.2 1 1.3-1 1-3.3-.7-5.2-1.6-1.6-3.9-2.3-5.2-1zm-10.8-8.1c-.7 1.3.3 2.9 2.3 3.9 1.6 1 3.6.7 4.3-.7.7-1.3-.3-2.9-2.3-3.9-2-.6-3.6-.3-4.3.7zm32.4 35.6c-1.6 1.3-1 4.3 1.3 6.2 2.3 2.3 5.2 2.6 6.5 1 1.3-1.3.7-4.3-1.3-6.2-2.2-2.3-5.2-2.6-6.5-1zm-11.4-14.7c-1.6 1-1.6 3.6 0 5.9 1.6 2.3 4.3 3.3 5.6 2.3 1.6-1.3 1.6-3.9 0-6.2-1.4-2.3-4-3.3-5.6-2z"
     id="path2" />
  <path
     style="fill:#ffffff;stroke-width:0.953445"
     d="M 158.94712,486.77212 C 77.349825,454.18093 19.29334,382.55765 4.3470605,296.04469 -4.8199179,242.98384 2.7179521,188.62908 25.767171,141.58659 37.155134,118.34424 49.655109,100.67175 68.151697,81.663259 106.4323,42.323217 151.47463,19.706626 209.28119,10.799515 c 15.50038,-2.3883718 54.91719,-2.3918083 71.03166,-0.0062 46.58043,6.895852 87.56578,23.964441 122.51769,51.023214 11.08373,8.580706 30.10624,27.294853 39.17673,38.541661 27.29832,33.84809 44.31258,72.68293 51.06298,116.55056 2.45892,15.9793 2.47788,55.25112 0.0343,71.03166 -8.6885,56.11016 -31.21288,102.91168 -67.84815,140.976 -24.48308,25.43808 -57.02862,46.78977 -89.62153,58.79668 -10.24324,3.77352 -14.55927,3.98457 -19.20708,0.9392 -5.05644,-3.3131 -5.12663,-4.08359 -5.14454,-56.47269 -0.0175,-51.29458 -0.23542,-54.35249 -4.72192,-66.271 -1.13006,-3.00204 -3.92519,-7.9992 -6.21141,-11.10481 l -4.15677,-5.64656 9.69858,-1.13062 c 14.08599,-1.64208 36.43659,-6.23511 44.59006,-9.16323 33.16859,-11.9117 50.0298,-32.86743 56.6998,-70.46859 2.4104,-13.58828 2.49527,-41.48448 0.15228,-50.05587 -3.36273,-12.3019 -10.23635,-24.33646 -19.89402,-34.83105 l -3.53754,-3.8441 1.97862,-6.6438 c 1.61761,-5.43163 1.99618,-9.42713 2.0749,-21.89893 0.1008,-15.96814 -1.14907,-24.30157 -5.32679,-35.51583 l -1.86476,-5.00558 h -6.22962 c -3.4263,0 -8.77257,0.65894 -11.88061,1.46432 -11.09984,2.87626 -31.07285,12.64856 -45.77516,22.39668 l -5.38554,3.57078 -9.39286,-2.27266 c -17.79243,-4.30499 -29.73275,-5.54928 -53.25134,-5.54928 -23.51302,0 -35.45949,1.24443 -53.23505,5.54535 l -9.37658,2.26872 -9.16223,-5.75858 c -22.43135,-14.09838 -42.14767,-21.953 -53.88319,-21.46605 l -6.68636,0.27744 -1.34646,3.81378 c -6.76086,19.14983 -7.89966,45.67252 -2.60531,60.67829 1.28543,3.6433 1.26885,3.69475 -2.64209,8.20163 -11.174531,12.8773 -17.051301,26.16821 -18.943286,42.84215 -1.95229,17.2054 0.94395,45.79176 6.191309,61.1092 12.355017,36.06526 36.584007,52.30578 88.775927,59.50585 l 15.4062,2.12535 -3.33111,4.33301 c -4.09704,5.3293 -8.11263,14.04744 -9.68106,21.0183 -1.70232,7.56596 -1.97168,7.8751 -8.94651,10.26791 -9.85264,3.38008 -20.20451,4.5394 -28.47196,3.18861 -14.82479,-2.42216 -25.04363,-9.87459 -35.77243,-26.08826 -6.52811,-9.86545 -12.03526,-15.40237 -19.794464,-19.90139 -12.151885,-7.04604 -29.189113,-8.8047 -31.326904,-3.2337 -0.942386,2.45582 1.879947,6.83914 6.5952,10.24291 11.057926,7.9823 14.060266,10.75107 18.636865,17.18699 2.701282,3.79872 6.802323,10.98274 9.113427,15.96449 7.378576,15.90506 8.325546,17.48618 13.562326,22.64453 5.83695,5.74954 15.15796,10.58974 25.37067,13.17446 7.33188,1.8556 30.84991,2.46218 42.66667,1.10045 l 6.43575,-0.74163 v 31.04414 c 0,32.95178 -0.25531,35.09345 -4.65041,39.00996 -4.00069,3.56504 -10.71032,3.03793 -22.80098,-1.79126 z"
     id="path47" />
  <path
     style="fill:#ffffff;stroke-width:0.953445"
     d=""
     id="path86" />
  <path
     style="fill:#ffffff;stroke-width:0.953445"
     d="m 176.1013,397.3959 c -1.67068,-1.67068 -1.40136,-3.41833 0.70008,-4.54299 2.67236,-1.4302 5.36269,-1.21251 6.82749,0.55246 1.09532,1.31978 0.96085,1.79595 -0.94233,3.33706 -2.54896,2.06402 -4.93765,2.30106 -6.58524,0.65347 z"
     id="path125" />
  <path
     style="fill:#ffffff;stroke-width:0.953445"
     d="m 156.98626,399.60299 c -3.32637,-2.10801 1.2885,-6.19092 5.74853,-5.08589 2.12196,0.52575 2.99169,2.98482 1.63419,4.62051 -1.20965,1.45753 -5.4003,1.7217 -7.38272,0.46538 z"
     id="path164" />
  <path
     style="fill:#ffffff;stroke-width:0.953445"
     d="m 136.77619,395.83646 c -1.95516,-1.58319 -2.09724,-2.0636 -1.00096,-3.38454 2.5598,-3.08436 9.23106,-0.8832 8.52886,2.81408 -0.48478,2.55255 -4.68688,2.87098 -7.5279,0.57046 z"
     id="path203" />
  <path
     style="fill:#ffffff;stroke-width:0.953445"
     d="m 120.6108,386.14525 c -2.1406,-2.14059 -2.52461,-5.34844 -0.71508,-5.97334 2.02251,-0.69846 5.49963,1.41989 6.07165,3.699 1.07628,4.28822 -2.02565,5.60526 -5.35657,2.27434 z"
     id="path242" />
  <path
     style="fill:#ffffff;stroke-width:0.953445"
     d="m 108.33849,371.306 c -2.17382,-2.76357 -1.74856,-5.18309 0.911,-5.18309 2.22933,0 4.93341,3.96963 4.13009,6.06304 -0.86953,2.26597 -2.8366,1.92261 -5.04109,-0.87995 z"
     id="path281" />
  <path
     style="fill:#ffffff;stroke-width:0.953445"
     d="m 98.681564,357.5419 c -2.298661,-2.29866 -2.421569,-3.67613 -0.397322,-4.4529 1.988898,-0.76322 5.613438,2.86132 4.850228,4.85022 -0.77678,2.02425 -2.15424,1.90134 -4.452906,-0.39732 z"
     id="path320" />
  <path
     style="fill:#ffffff;stroke-width:0.953445"
     d="m 88.09964,347.15618 c -1.999303,-1.63064 -2.087488,-1.94613 -0.695558,-2.48837 1.945516,-0.75791 5.809016,1.15286 5.316797,2.62952 -0.614478,1.84343 -2.2492,1.7935 -4.621239,-0.14115 z"
     id="path359" />
</svg>
