<?xml version="1.0" encoding="UTF-8" standalone="no"?>
<svg
   viewBox="0 0 448 512"
   version="1.1"
   id="svg4"
   sodipodi:docname="linkedin.svg"
   inkscape:version="1.1.2 (0a00cf5339, 2022-02-04)"
   xmlns:inkscape="http://www.inkscape.org/namespaces/inkscape"
   xmlns:sodipodi="http://sodipodi.sourceforge.net/DTD/sodipodi-0.dtd"
   xmlns="http://www.w3.org/2000/svg"
   xmlns:svg="http://www.w3.org/2000/svg">
  <defs
     id="defs8" />
  <sodipodi:namedview
     id="namedview6"
     pagecolor="#ffffff"
     bordercolor="#666666"
     borderopacity="1.0"
     inkscape:pageshadow="2"
     inkscape:pageopacity="0.0"
     inkscape:pagecheckerboard="0"
     showgrid="false"
     inkscape:zoom="1.0488281"
     inkscape:cx="223.58287"
     inkscape:cy="256"
     inkscape:window-width="1366"
     inkscape:window-height="713"
     inkscape:window-x="0"
     inkscape:window-y="27"
     inkscape:window-maximized="1"
     inkscape:current-layer="svg4" />
  <!--! Font Awesome Free 6.1.2 by @fontawesome - https://fontawesome.com License - https://fontawesome.com/license/free (Icons: CC BY 4.0, Fonts: SIL OFL 1.1, Code: MIT License) Copyright 2022 Fonticons, Inc. -->
  <path
     d="M416 32H31.9C14.3 32 0 46.5 0 64.3v383.4C0 465.5 14.3 480 31.9 480H416c17.6 0 32-14.5 32-32.3V64.3c0-17.8-14.4-32.3-32-32.3zM135.4 416H69V202.2h66.5V416zm-33.2-243c-21.3 0-38.5-17.3-38.5-38.5S80.9 96 102.2 96c21.2 0 38.5 17.3 38.5 38.5 0 21.3-17.2 38.5-38.5 38.5zm282.1 243h-66.4V312c0-24.8-.5-56.7-34.5-56.7-34.6 0-39.9 27-39.9 54.9V416h-66.4V202.2h63.7v29.2h.9c8.9-16.8 30.6-34.5 62.9-34.5 67.2 0 79.7 44.3 79.7 101.9V416z"
     id="path2" />
  <path
     style="fill:#ffffff;stroke-width:0.953445"
     d="M 23.23562,478.09546 C 16.742142,476.08927 9.9558753,471.15572 6.4274492,465.87608 0.01546202,456.28174 0.43325879,471.74972 0.7061156,254.05662 L 0.95344507,56.729981 3.4334634,51.442527 C 6.9730356,43.89608 11.159702,39.584078 18.41534,36.012139 l 6.334135,-3.118284 H 224.03954 423.32961 l 5.39209,2.527925 c 6.65407,3.11956 12.31041,8.818146 15.79408,15.912026 l 2.64996,5.396175 V 256 455.27002 l -2.64996,5.39617 c -3.48367,7.09388 -9.14001,12.79247 -15.79408,15.91203 l -5.39209,2.52793 -197.83985,0.17656 C 56.247647,479.43376 27.011822,479.26214 23.23562,478.09546 Z M 135.86592,309.39292 V 202.13035 h -33.8473 -33.847298 v 107.26257 107.26257 h 33.847298 33.8473 z m 107.99921,46.00373 c 0.35785,-53.90842 0.6059,-62.11687 2.06726,-68.40969 4.36245,-18.78529 13.49469,-28.04491 30.21378,-30.63522 17.83257,-2.76283 31.82142,4.53525 37.0146,19.31078 3.55647,10.11879 3.84514,16.05756 3.85252,79.25741 l 0.007,61.73556 h 33.91069 33.91068 l -0.39606,-73.17691 c -0.37642,-69.5468 -0.49573,-73.69718 -2.40515,-83.6648 -3.82694,-19.97754 -9.32739,-32.23903 -19.1344,-42.65397 -3.34235,-3.54954 -8.51421,-7.93423 -11.49303,-9.74377 -12.36014,-7.50839 -32.84015,-11.80086 -50.98174,-10.68544 -12.70208,0.78099 -20.20015,2.67529 -30.64869,7.74306 -9.52448,4.6196 -20.0323,13.47698 -25.1447,21.19531 l -2.93976,4.43822 V 216.11877 202.13035 H 209.281 176.86387 v 107.26257 107.26257 h 33.29722 33.29722 z M 118.20104,169.86542 c 16.10367,-7.53582 24.68867,-23.49703 22.26157,-41.3887 -2.82966,-20.85926 -23.29848,-35.844802 -44.224258,-32.377287 -13.100614,2.170843 -23.724541,10.099647 -29.297657,21.865307 -2.839778,5.99518 -3.059876,7.17995 -3.059876,16.47101 0,9.25559 0.224929,10.47892 2.980221,16.20857 1.639121,3.40857 4.486668,7.91359 6.327883,10.01117 10.650035,12.13291 30.212377,16.13556 45.012117,9.20993 z"
     id="path505" />
</svg>
