<?xml version="1.0" encoding="UTF-8" standalone="no"?>
<svg
   viewBox="0 0 512 512"
   version="1.1"
   id="svg4"
   sodipodi:docname="paper-plane.svg"
   inkscape:version="1.1.2 (0a00cf5339, 2022-02-04)"
   xmlns:inkscape="http://www.inkscape.org/namespaces/inkscape"
   xmlns:sodipodi="http://sodipodi.sourceforge.net/DTD/sodipodi-0.dtd"
   xmlns="http://www.w3.org/2000/svg"
   xmlns:svg="http://www.w3.org/2000/svg">
  <defs
     id="defs8" />
  <sodipodi:namedview
     id="namedview6"
     pagecolor="#ffffff"
     bordercolor="#666666"
     borderopacity="1.0"
     inkscape:pageshadow="2"
     inkscape:pageopacity="0.0"
     inkscape:pagecheckerboard="0"
     showgrid="false"
     inkscape:zoom="1.0488281"
     inkscape:cx="256"
     inkscape:cy="256"
     inkscape:window-width="1366"
     inkscape:window-height="713"
     inkscape:window-x="0"
     inkscape:window-y="27"
     inkscape:window-maximized="1"
     inkscape:current-layer="svg4" />
  <!--! Font Awesome Free 6.1.2 by @fontawesome - https://fontawesome.com License - https://fontawesome.com/license/free (Icons: CC BY 4.0, Fonts: SIL OFL 1.1, Code: MIT License) Copyright 2022 Fonticons, Inc. -->
  <path
     d="M511.6 36.86l-64 415.1c-1.5 9.734-7.375 18.22-15.97 23.05c-4.844 2.719-10.27 4.097-15.68 4.097c-4.188 0-8.319-.8154-12.29-2.472l-122.6-51.1l-50.86 76.29C226.3 508.5 219.8 512 212.8 512C201.3 512 192 502.7 192 491.2v-96.18c0-7.115 2.372-14.03 6.742-19.64L416 96l-293.7 264.3L19.69 317.5C8.438 312.8 .8125 302.2 .0625 289.1s5.469-23.72 16.06-29.77l448-255.1c10.69-6.109 23.88-5.547 34 1.406S513.5 24.72 511.6 36.86z"
     id="path2" />
  <path
     style="fill:#ffffff;stroke-width:0.953445"
     d="m 209.28119,511.02002 c -6.60518,-1.15992 -11.38948,-4.82386 -14.90523,-11.41481 -1.6774,-3.1446 -1.78006,-6.44375 -1.78006,-57.2067 v -53.86965 l 2.30833,-5.11174 c 1.46704,-3.24873 42.21021,-56.41491 111.79087,-145.87709 60.2154,-77.42094 109.4828,-141.171314 109.48311,-141.667477 3e-4,-0.496163 -1.39385,0.407979 -3.09814,2.009214 C 406.12282,104.41834 123.8389,358.15552 122.8316,358.77806 122.23154,359.14891 97.995885,349.55547 68.974576,337.45929 10.036286,312.8936 9.9917429,312.86903 4.2905028,301.77631 1.2386546,295.83842 0.95344507,294.58264 0.95344507,287.08309 c 0,-7.06425 0.37233613,-8.95865 2.68739663,-13.67311 C 5.1189098,270.4 8.1222622,266.38362 10.314957,264.4847 14.63377,260.7445 463.76379,4.5346326 470.04842,2.2260063 472.146,1.4554708 476.72754,0.81606812 480.22963,0.80511142 495.74612,0.756566 509.74111,13.465202 511.18288,28.913286 c 0.33241,3.561638 -8.58504,63.5425 -32.06032,215.645374 -35.47836,229.87421 -33.04816,216.56992 -41.01455,224.53631 -6.28301,6.283 -13.19132,9.06389 -22.40596,9.01933 l -7.62756,-0.0369 -63.16271,-26.42046 c -34.73949,-14.53126 -63.48586,-26.40732 -63.88082,-26.39127 -0.39496,0.016 -12.94604,18.35379 -27.8913,40.75052 -20.62466,30.90781 -27.94413,41.16093 -30.37223,42.54549 -4.0012,2.28157 -9.14911,3.21995 -13.48624,2.45832 z"
     id="path65" />
</svg>
