<?xml version="1.0" encoding="UTF-8" standalone="no"?>
<svg
   viewBox="0 0 512 512"
   version="1.1"
   id="svg4"
   sodipodi:docname="phone.svg"
   inkscape:version="1.1.2 (0a00cf5339, 2022-02-04)"
   xmlns:inkscape="http://www.inkscape.org/namespaces/inkscape"
   xmlns:sodipodi="http://sodipodi.sourceforge.net/DTD/sodipodi-0.dtd"
   xmlns="http://www.w3.org/2000/svg"
   xmlns:svg="http://www.w3.org/2000/svg">
  <defs
     id="defs8" />
  <sodipodi:namedview
     id="namedview6"
     pagecolor="#ffffff"
     bordercolor="#666666"
     borderopacity="1.0"
     inkscape:pageshadow="2"
     inkscape:pageopacity="0.0"
     inkscape:pagecheckerboard="0"
     showgrid="false"
     inkscape:zoom="1.0488281"
     inkscape:cx="256"
     inkscape:cy="256"
     inkscape:window-width="1366"
     inkscape:window-height="713"
     inkscape:window-x="0"
     inkscape:window-y="27"
     inkscape:window-maximized="1"
     inkscape:current-layer="svg4" />
  <!--! Font Awesome Free 6.1.2 by @fontawesome - https://fontawesome.com License - https://fontawesome.com/license/free (Icons: CC BY 4.0, Fonts: SIL OFL 1.1, Code: MIT License) Copyright 2022 Fonticons, Inc. -->
  <path
     d="M511.2 387l-23.25 100.8c-3.266 14.25-15.79 24.22-30.46 24.22C205.2 512 0 306.8 0 54.5c0-14.66 9.969-27.2 24.22-30.45l100.8-23.25C139.7-2.602 154.7 5.018 160.8 18.92l46.52 108.5c5.438 12.78 1.77 27.67-8.98 36.45L144.5 207.1c33.98 69.22 90.26 125.5 159.5 159.5l44.08-53.8c8.688-10.78 23.69-14.51 36.47-8.975l108.5 46.51C506.1 357.2 514.6 372.4 511.2 387z"
     id="path2" />
  <path
     style="fill:#ffffff;stroke-width:0.953445"
     d="M 438.10801,510.98848 C 300.6633,505.12157 173.77755,437.79514 90.891673,326.75316 37.816331,255.64826 7.2993867,172.14851 1.3589595,81.775833 -0.17138947,58.494389 0.36088458,48.679234 3.5266553,41.803433 6.5246376,35.292055 11.998312,29.760983 18.251433,26.924249 25.381854,23.689527 126.55599,0.69120038 133.28003,0.77660436 143.3309,0.90426322 153.93601,7.5552266 158.94544,16.87259 c 1.35431,2.518958 13.12662,29.46484 26.1607,59.879738 l 23.69833,55.299812 -0.0142,7.62756 c -0.0161,8.63389 -1.90233,13.9152 -7.07296,19.80422 -1.68958,1.92433 -15.2666,13.24563 -30.17115,25.15846 -14.90459,11.91282 -27.09922,22.04487 -27.09922,22.51566 0,1.76292 10.03494,20.3014 17.06222,31.52063 31.57906,50.41677 77.07231,93.22443 129.28477,121.65276 6.81337,3.7097 12.66454,6.74492 13.0026,6.74492 0.33804,0 9.98796,-11.47709 21.44425,-25.50466 11.4563,-14.02756 22.66661,-27.48706 24.91182,-29.91002 5.74028,-6.19476 13.61275,-9.58784 22.24528,-9.58784 6.51956,0 7.4096,0.33981 61.66724,23.54409 30.27871,12.94925 57.10667,24.64862 59.61768,25.9986 5.88696,3.16497 11.67008,9.4798 14.65745,16.00509 4.57037,9.983 4.56895,9.99403 -8.73548,67.53161 -6.65706,28.78977 -12.72303,54.10374 -13.47993,56.25326 -1.97868,5.61922 -5.51627,10.34157 -10.34451,13.80895 -8.35888,6.0029 -13.57203,6.80178 -37.67231,5.77305 z"
     id="path47" />
</svg>
